<?xml version="1.0" encoding="utf-8"?>
<!-- Generator: Adobe Illustrator 24.0.0, SVG Export Plug-In . SVG Version: 6.00 Build 0)  -->
<svg version="1.1" id="Layer_1" xmlns="http://www.w3.org/2000/svg" xmlns:xlink="http://www.w3.org/1999/xlink" x="0px" y="0px"
	 width="23px" height="23px" viewBox="0 0 23 23" style="enable-background:new 0 0 23 23;" xml:space="preserve">
<style type="text/css">
	.st0{fill:none;}
	.st1{stroke:#000000;stroke-width:2;stroke-linejoin:round;}
	.st2{fill:#FFFFFF;}
</style>
<title>toilet-15.svg</title>
<rect class="st0" width="23" height="23"/>
<path class="st1" d="M5,1h13c2.2,0,4,1.8,4,4v13c0,2.2-1.8,4-4,4H5c-2.2,0-4-1.8-4-4V5C1,2.8,2.8,1,5,1z"/>
<path class="st2" d="M5,1h13c2.2,0,4,1.8,4,4v13c0,2.2-1.8,4-4,4H5c-2.2,0-4-1.8-4-4V5C1,2.8,2.8,1,5,1z"/>
<circle cx="11.5" cy="3.7" r="1.9"/>
<path d="M14.1,7H8.9C8.6,7,8.3,7.3,8.3,7.6v6.5c0,0.4,0.3,0.6,0.6,0.6c0.4,0,0.6-0.3,0.6-0.6v6.5c0,0.4,0.3,0.6,0.6,0.6
	s0.6-0.3,0.6-0.6v-6.5h1.3v6.5c0,0.4,0.3,0.6,0.6,0.6c0.4,0,0.6-0.3,0.6-0.6v-6.5c0,0.4,0.3,0.6,0.6,0.6c0.4,0,0.6-0.3,0.6-0.6V7.6
	C14.7,7.3,14.5,7,14.1,7z"/>
</svg>
