<?xml version="1.0" encoding="utf-8"?>
<!-- Generator: Adobe Illustrator 24.0.0, SVG Export Plug-In . SVG Version: 6.00 Build 0)  -->
<svg version="1.1" id="Layer_1" xmlns="http://www.w3.org/2000/svg" xmlns:xlink="http://www.w3.org/1999/xlink" x="0px" y="0px"
	 width="23px" height="23px" viewBox="0 0 23 23" style="enable-background:new 0 0 23 23;" xml:space="preserve">
<style type="text/css">
	.st0{fill:none;}
	.st1{stroke:#000000;stroke-width:2;stroke-linejoin:round;}
	.st2{fill:#FFFFFF;}
</style>
<title>toilet-15.svg</title>
<rect class="st0" width="23" height="23"/>
<path class="st1" d="M5,1h13c2.2,0,4,1.8,4,4v13c0,2.2-1.8,4-4,4H5c-2.2,0-4-1.8-4-4V5C1,2.8,2.8,1,5,1z"/>
<path class="st2" d="M5,1h13c2.2,0,4,1.8,4,4v13c0,2.2-1.8,4-4,4H5c-2.2,0-4-1.8-4-4V5C1,2.8,2.8,1,5,1z"/>
<circle cx="11.5" cy="3.7" r="1.9"/>
<path d="M17.2,10.4L17.2,10.4L14,7.2l0,0C13.8,7,13.6,7,13.5,7H9.6C9.4,7,9.2,7,9.1,7.2l0,0l-3.3,3.2c-0.3,0.2-0.3,0.7-0.1,0.9
	c0.2,0.3,0.7,0.3,0.9,0.1l0.1-0.1l2.8-2.8L7,16h2.6v4.3c0,0.1,0,0.1,0,0.2c0.1,0.4,0.4,0.6,0.8,0.5c0.3-0.1,0.5-0.3,0.5-0.5l0,0V16
	h1.3v4.5l0,0c0.1,0.4,0.4,0.6,0.8,0.5c0.3-0.1,0.5-0.3,0.5-0.5c0-0.1,0-0.1,0-0.2V16H16l-2.6-7.5l2.8,2.8l0,0
	c0.1,0.1,0.3,0.2,0.5,0.2c0.4,0,0.6-0.3,0.6-0.7C17.3,10.7,17.3,10.5,17.2,10.4z"/>
</svg>
