<?xml version="1.0" encoding="utf-8"?>
<!-- Generator: Adobe Illustrator 24.0.0, SVG Export Plug-In . SVG Version: 6.00 Build 0)  -->
<svg version="1.1" id="Layer_1" xmlns="http://www.w3.org/2000/svg" xmlns:xlink="http://www.w3.org/1999/xlink" x="0px" y="0px"
	 width="23px" height="23px" viewBox="0 0 23 23" style="enable-background:new 0 0 23 23;" xml:space="preserve">
<style type="text/css">
	.st0{fill:none;}
	.st1{stroke:#000000;stroke-width:2;stroke-linejoin:round;}
	.st2{fill:#FFFFFF;}
</style>
<title>toilet-15.svg</title>
<rect class="st0" width="23" height="23"/>
<path class="st1" d="M5,1h13c2.2,0,4,1.8,4,4v13c0,2.2-1.8,4-4,4H5c-2.2,0-4-1.8-4-4V5C1,2.8,2.8,1,5,1z"/>
<path class="st2" d="M5,1h13c2.2,0,4,1.8,4,4v13c0,2.2-1.8,4-4,4H5c-2.2,0-4-1.8-4-4V5C1,2.8,2.8,1,5,1z"/>
<circle cx="4.5" cy="5.5" r="1.5"/>
<circle cx="12.2" cy="5.5" r="1.5"/>
<path d="M16.6,10.6L16.6,10.6l-2.5-2.5l0,0C14,8,13.8,8,13.7,8h-3c-0.1,0-0.3,0.1-0.3,0.1l0,0l-2.5,2.5c-0.2,0.2-0.3,0.5-0.1,0.7
	c0.2,0.2,0.5,0.3,0.7,0.1l0.1-0.1l2.1-2.2l-2,5.8h2v3.3v0.1c0.1,0.3,0.3,0.5,0.6,0.4c0.2,0,0.4-0.2,0.4-0.4l0,0V15h1v3.5l0,0
	c0.1,0.3,0.3,0.5,0.6,0.4c0.2,0,0.4-0.2,0.4-0.4v-0.1V15h2l-2-5.8l2.1,2.2l0,0c0.1,0.1,0.2,0.2,0.4,0.2c0.3,0,0.5-0.3,0.5-0.5
	S16.7,10.7,16.6,10.6z"/>
<path d="M6.5,8h-4C2.2,8,2,8.2,2,8.5v5C2,13.8,2.2,14,2.5,14S3,13.8,3,13.5v5C3,18.8,3.2,19,3.5,19S4,18.8,4,18.5v-5h1v5
	C5,18.8,5.2,19,5.5,19S6,18.8,6,18.5v-5C6,13.8,6.2,14,6.5,14C6.8,14,7,13.8,7,13.5v-5C7,8.2,6.8,8,6.5,8z"/>
<circle cx="19.2" cy="9.1" r="1.1"/>
<path d="M20.7,11h-3c-0.2,0-0.4,0.1-0.4,0.4v3.7c0,0.2,0.1,0.4,0.4,0.4c0.2,0,0.4-0.1,0.4-0.4v3.7c0,0.2,0.1,0.4,0.4,0.4
	s0.4-0.1,0.4-0.4v-3.7h0.7v3.7c0,0.2,0.1,0.4,0.4,0.4c0.2,0,0.4-0.1,0.4-0.4v-3.7c0,0.2,0.1,0.4,0.4,0.4c0.2,0,0.4-0.1,0.4-0.4v-3.7
	C21.1,11.1,21,11,20.7,11z"/>
</svg>
