<?xml version="1.0" encoding="utf-8"?>
<!-- Generator: Adobe Illustrator 24.0.0, SVG Export Plug-In . SVG Version: 6.00 Build 0)  -->
<svg version="1.1" id="Layer_1" xmlns="http://www.w3.org/2000/svg" xmlns:xlink="http://www.w3.org/1999/xlink" x="0px" y="0px"
	 width="500px" height="500px" viewBox="0 0 500 500" style="enable-background:new 0 0 500 500;" xml:space="preserve">
<style type="text/css">
	.st0{fill:#FF0000;stroke:#002D62;stroke-width:14;stroke-miterlimit:10;}
	.st1{fill:#002D62;}
	.st2{fill:#FFFFFF;}
</style>
<circle class="st0" cx="250" cy="250" r="240"/>
<path class="st1" d="M370.3,99.2c-31-24.7-59,6.2-59,23.8c31,6.6,58.6,37.4,46.1,117.7c-10,65.7-48.9,106.5-73.2,107.3
	c20.3-27.7,33.8-58.9,41.3-89.4c22.2-91.1-13.3-120.4-41.4-121.8c-34.2-1.8-68.3,44.7-77.9,99.4c-7.6,43.5-6.6,87.7,19.9,120.3
	c-23.4,29.4-79.6,38.5-69.8-32.4c8.3-59.4,37.9-124.9,54.1-157.1l0.5-0.8c8.8-18,15.7-30.8,18.7-35.8l-6.6-0.1
	c-63.9,1.1-114.8,15.8-138.4,48.2c-22.2,30.3-22.9,62.1-4.6,81l2.7,2.7c5.4,5.4,12.5,8.1,19.4,8.1l0,0c6.4,0,12.7-2.3,17.6-7.2
	c4.9-4.7,7.3-11.2,7.3-17.6c0-7-2.9-14-8.1-19.4c-2.9-2.8-6.1-4.9-9.6-6.3l0.1-0.3l1.6-3.4c4.3-7.6,11.9-14.3,21.5-19.3
	c7.7-3.8,16.6-6.5,26.5-7.4l-1.6,3.2c-13.5,25.1-33.3,72.9-39.6,97.8c-19.4,77.9,12.1,123.5,46.1,129.8c41,7.7,72.5-12.2,89.2-37.8
	c19.8,12.6,72.2,19.7,111.7-50.2C410.2,251.5,411.8,132.5,370.3,99.2 M254.2,329.8c-7.8-18.9-11.2-41.2-11.2-62.4
	c0-25.5,5.1-49.3,13.9-63.2c5.8-9.2,12.7-13.6,20.5-13.1c2.7,0.1,5.8,1.1,8.1,6.5c1.8,4.3,2.6,10,2.6,16.7
	C288.2,247.5,268.1,304.4,254.2,329.8"/>
<path class="st2" d="M365.6,105c-10-7.9-20.2-9.7-29.6-5.1c-8,3.8-14.1,11.3-16.3,18c19.1,6.5,48.2,26.2,48.2,86.8
	c0,11.1-1,23.5-3.1,37.3c-9.5,61.8-44,104-71.7,112.1c-8.1,2.4-15.6,1.6-21.5-1.6c27.3-33.6,40.5-69.8,46.8-95.5
	c4.8-20,6.8-36.3,6.8-49.8c0-23.9-6.1-38.4-12.6-47.1c-9.9-13.1-22.3-15.5-28.9-15.9c-29-1.5-61.1,41.4-70.1,93.4
	c-2.6,15.1-3.9,28.9-3.9,41.6c0,32.7,8.7,57.9,25.9,76.8c-12.8,20-38.8,33.7-59.4,28.9c-9.1-2-28.1-10.5-28.1-45.5
	c0-4.9,0.4-10.4,1.2-16.4c7.6-53.6,32.1-113,49.5-148.7l0.5-0.7c7.6-15.8,14.1-28.2,18.4-35.8h-1.2c-62.1,2-105.4,17.6-125.5,44.8
	c0,0-16.8,21.5-16.2,43.1c0.4,12.6,4.8,23.6,14.4,31.6l1.2,0.9c7.6,5.8,18,5.8,24.3-0.7c6.9-7,6.5-18.8-1-26.2
	c-3.8-3.8-8.9-5.8-13.8-6l0,0c4.5-24.9,33.1-44,67.8-44l4.6,0.1l-0.6,1.2l-7.2,13.4c-12.8,23.8-32.7,70.9-39,96
	c-9.9,39.4-6.9,73.8,8,97.2c8.3,13,19.8,21.3,32.2,23.6c27.5,5.1,47.5-3.6,59.4-11.7c10-6.8,19.8-17.6,26.6-28.9
	c8.1,5.3,21.9,11,33.6,10.8c19.6-0.3,48.3-10,73.3-54.7c20.8-37.2,33.4-84.8,34.2-130.8C393.7,153.8,383.5,119.3,365.6,105
	 M277.7,183.8c43.7,2.7-5.7,139.2-24.7,161.1C221.7,288.3,233.5,181,277.7,183.8"/>
</svg>
