<?xml version="1.0" encoding="utf-8"?>
<!-- Generator: Adobe Illustrator 24.0.0, SVG Export Plug-In . SVG Version: 6.00 Build 0)  -->
<svg version="1.1" id="Layer_1" xmlns="http://www.w3.org/2000/svg" xmlns:xlink="http://www.w3.org/1999/xlink" x="0px" y="0px"
	 width="500px" height="500px" viewBox="0 0 500 500" style="enable-background:new 0 0 500 500;" xml:space="preserve">
<style type="text/css">
	.st0{fill:#002D62;}
	.st1{fill:#FFFFFF;}
</style>
<path class="st0" d="M455,13.9c-46.4-37.2-88.5,9.3-88.5,35.7c46.4,9.9,88,56.2,69.3,176.7c-15.1,98.6-73.4,159.8-109.9,161.1
	c30.4-41.5,50.7-88.4,61.9-134.2c33.3-136.8-20-180.8-62.1-182.8c-51.3-2.7-102.5,67-116.9,149.2c-11.3,65.2-9.9,131.6,29.9,180.5
	c-35.1,44.2-119.5,57.8-104.7-48.7c12.4-89.1,56.8-187.5,81.3-235.8l0.7-1.3c13.1-26.9,23.6-46.2,28.1-53.7l-9.9-0.2
	c-95.9,1.6-172.3,23.7-207.8,72.4C-7,178.4-8,226.1,19.5,254.5l4.1,4.1c8.1,8.1,18.7,12.2,29.1,12.2l0,0c9.5,0,19.1-3.4,26.4-10.8
	c7.4-7.2,11-16.9,11-26.4c0-10.6-4.3-21-12.2-29.1c-4.3-4.3-9.2-7.4-14.4-9.5l0.2-0.4l2.5-5c6.5-11.3,17.8-21.6,32.4-28.9
	c11.5-5.7,25-9.7,39.8-11.1l-2.3,4.8c-20.3,37.7-50,109.4-59.5,146.7c-29.1,116.9,18.2,185.3,69.3,194.9
	c61.5,11.5,108.8-18.3,133.8-56.8c29.7,18.9,108.5,29.6,167.7-75.4C514.9,242.5,517.4,63.8,455,13.9 M280.9,359.9
	c-11.7-28.4-16.9-61.8-16.9-93.6c0-38.3,7.7-74,20.9-94.8c8.6-13.8,19.1-20.5,30.8-19.6c4.1,0.2,8.8,1.6,12.2,9.7
	c2.7,6.5,4,15.1,4,25.1C331.8,236.5,301.7,321.9,280.9,359.9"/>
<path class="st1" d="M448,22.5c-14.9-11.9-30.2-14.5-44.4-7.7c-12.1,5.7-21,17.1-24.5,26.9c28.6,9.7,72.3,39.3,72.3,130.4
	c0,16.7-1.4,35.2-4.7,56c-14.2,92.8-66,156.1-107.6,168.3c-12.2,3.6-23.4,2.5-32.4-2.3c41-50.5,60.8-104.7,70.2-143.3
	c7.2-30,10.3-54.6,10.3-74.7c0-35.9-9.2-57.6-18.9-70.8c-14.8-19.6-33.5-23.3-43.4-23.9c-43.5-2.2-91.7,62.1-105.2,140.3
	c-4,22.6-5.9,43.5-5.9,62.5c0,49,13,86.9,38.9,115.3c-19.2,30-58.3,50.6-89.2,43.5c-13.7-3.1-42.3-15.8-42.3-68.2
	c0-7.4,0.5-15.6,1.8-24.6c11.3-80.5,48.2-169.5,74.3-223.2l0.7-1.1c11.3-23.7,21-42.4,27.5-53.7h-1.8
	c-93.2,3.1-158.1,26.4-188.4,67.3c0,0-25.2,32.1-24.3,64.7c0.5,18.9,7.2,35.6,21.6,47.4l1.8,1.4c11.3,8.8,27,8.6,36.5-1.1
	c10.4-10.6,9.7-28.2-1.4-39.3c-5.8-5.7-13.3-8.8-20.7-9h0c6.7-37.4,49.7-66.1,101.6-66.1l6.8,0.2l-0.9,1.8l-10.8,20.1
	c-19.2,35.7-49.1,106.3-58.5,144c-14.8,59.1-10.4,110.8,12.1,145.8c12.4,19.4,29.7,32,48.4,35.6c41.2,7.7,71.2-5.4,89.2-17.6
	c14.9-10.2,29.7-26.4,39.9-43.3c12.2,7.9,32.9,16.5,50.4,16.2c29.5-0.4,72.5-15.1,110.1-82.1c31.3-55.9,50.2-127.3,51.5-196.3
	C490.1,95.9,474.8,44,448,22.5 M316.1,140.8c65.7,4.1-8.5,208.9-37.1,241.7C232.1,297.8,249.8,136.7,316.1,140.8"/>
</svg>
